<svg aria-hidden="true" style="position:absolute;width:0;height:0" xmlns="http://www.w3.org/2000/svg" overflow="hidden"><defs><symbol id="alarm-icon" viewBox="0 0 32 32"><path d="M30.74 10.003c-1.623-3.715-4.528-6.62-8.142-8.204l-.101-.039c1-.787 2.258-1.26 3.629-1.26A5.874 5.874 0 0 1 32 6.374v.003a5.822 5.822 0 0 1-1.269 3.637l.009-.012zM30.5 16.5c0 3.852-1.512 7.343-3.963 9.94l2.029 2.028a1.483 1.483 0 1 1-2.098 2.097l-2.178-2.178A14.305 14.305 0 0 1 16.01 31H16h.001c-3.079 0-5.928-.966-8.276-2.603L5.562 30.56a1.5 1.5 0 1 1-2.122-2.121l2.012-2.012c-2.443-2.595-3.951-6.082-3.951-9.927 0-8.008 6.492-14.5 14.5-14.5s14.5 6.492 14.5 14.5zM16 5C9.649 5 4.5 10.148 4.5 16.5 4.5 22.851 9.649 28 16 28s11.5-5.149 11.5-11.5C27.5 10.148 22.351 5 16 5zm6 13h-6a1.5 1.5 0 0 1-1.5-1.5v-8a1.5 1.5 0 0 1 3 0v6.499H22a1.5 1.5 0 1 1 0 3zM1.287 10.205A5.928 5.928 0 0 1 0 6.504v-.005a6 6 0 0 1 6-6c1.4 0 2.685.483 3.706 1.287-3.795 1.658-6.761 4.624-8.379 8.315l-.04.103z"/></symbol><symbol id="book-icon" viewBox="0 0 32 32"><path d="M31.065 25.889l-14.471 5.988a1.502 1.502 0 0 1-1.198-.003l.009.004L.934 25.89a1.502 1.502 0 0 1-.935-1.389v-23A1.5 1.5 0 0 1 2.082.118l-.01-.004h.001l.002.001.013.005 13.911 5.756L29.926.114A1.5 1.5 0 0 1 31.999 1.5v23c0 .625-.382 1.16-.925 1.385l-.01.004zM14.5 8.503L3 3.744v19.753l11.5 4.759V8.503zM29 3.744L17.5 8.503v19.753L29 23.497V3.744zm-9.121 6.89l5.5-2.5a1.5 1.5 0 0 1 1.251 2.727l-.009.004-5.5 2.5a1.5 1.5 0 0 1-1.251-2.727l.009-.004zm0 5.5l5.5-2.5a1.5 1.5 0 0 1 1.251 2.727l-.009.004-5.5 2.5a1.5 1.5 0 0 1-1.251-2.727l.009-.004zm0 5.5l5.5-2.5a1.5 1.5 0 0 1 1.251 2.727l-.009.004-5.5 2.5a1.5 1.5 0 0 1-1.251-2.727l.009-.004zM6 8c.221 0 .431.048.621.134l5.5 2.5a1.501 1.501 0 1 1-1.252 2.728l.01.004-5.5-2.5A1.5 1.5 0 0 1 6 8.001zm0 5.5c.221 0 .431.048.621.134l5.5 2.5a1.501 1.501 0 1 1-1.252 2.728l.01.004-5.5-2.5A1.5 1.5 0 0 1 6 13.501zM6 19c.221 0 .431.048.621.134l5.5 2.5a1.501 1.501 0 1 1-1.252 2.728l.01.004-5.5-2.5A1.5 1.5 0 0 1 6 19.001z"/></symbol><symbol id="comp-icon" viewBox="0 0 32 32"><path d="M30 25h-9.5v2.499l2 2.001v.5h-13v-.5l2-2.001V25H2a1.5 1.5 0 0 1-1.5-1.5v-20A1.5 1.5 0 0 1 2 2h28a1.5 1.5 0 0 1 1.5 1.5v20A1.5 1.5 0 0 1 30 25zm-.5-21h-27v17h27V4zM13 11c.414 0 .789.168 1.061.439l.939.939 2.939-2.939a1.5 1.5 0 1 1 2.122 2.122l-4 4c-.271.272-.647.44-1.061.44s-.79-.168-1.061-.44l-2-2.001A1.5 1.5 0 0 1 13 11z"/></symbol><symbol id="graph-icon" viewBox="0 0 32 32"><path d="M30.5 32h-29A1.5 1.5 0 0 1 0 30.5V1.499A1.5 1.5 0 0 1 1.5 0h29A1.5 1.5 0 0 1 32 1.499V30.5a1.5 1.5 0 0 1-1.5 1.5zM29 3H3v26h26V3zM5.215 16.239v-.002l4-2.498a1.49 1.49 0 0 1 1.63.038l-.005-.003.006-.008 6.631 4.42 7.638-5.391a1.5 1.5 0 0 1 1.766 2.423l-.003.003h.001l-8.501 6c-.246.179-.55.284-.878.284-.321 0-.618-.101-.861-.272l-6.657-4.438-3.135 1.96a1.5 1.5 0 0 1-1.637-2.513l.005-.003z"/></symbol><symbol id="home-icon" viewBox="0 0 32 32"><path d="M32 17a1.5 1.5 0 0 1-1.5 1.499c-.395 0-.754-.154-1.021-.406l.001.001-.003.004L16 4.622 2.553 18.068A1.5 1.5 0 1 1 .46 15.92l.001-.001L14.919 1.46C15.192 1.177 15.575 1 16 1h.001c.026 0 .052 0 .079.002l.012.001.068.005.004.001c.367.04.694.212.933.468l.001-.001L23 7.378V6a1.5 1.5 0 0 1 3 0v4.378l5.598 5.598-.004.004c.25.268.406.625.406 1.02zm-3 2.5V30a1.5 1.5 0 0 1-1.5 1.5h-3v-12h-6v12h-14A1.5 1.5 0 0 1 3 30V19.5l13-13 13 13zm-15.5 0h-6v6h6v-6z"/></symbol><symbol id="image-icon" viewBox="0 0 32 32"><path d="M30.5 32h-29A1.5 1.5 0 0 1 0 30.5v-29A1.5 1.5 0 0 1 1.5 0h29A1.5 1.5 0 0 1 32 1.5v29a1.5 1.5 0 0 1-1.5 1.5zM29 3H3v26h26V3zM6.5 4.5H12a1.5 1.5 0 0 1 0 3H7.5V12a1.5 1.5 0 0 1-3 0V4.5h2zM4.5 20a1.5 1.5 0 0 1 3 0v4.499l4.5.001a1.5 1.5 0 0 1 0 3H4.5V20zM20 4.5h7.5V12a1.5 1.5 0 0 1-3 0V7.5H20a1.5 1.5 0 0 1 0-3zm0 20v-.001h4.5V20a1.5 1.5 0 0 1 3 0v7.5H20a1.5 1.5 0 0 1 0-3z"/></symbol></defs></svg>